<?xml version="1.0" encoding="UTF-8"?>
<!DOCTYPE svg  PUBLIC '-//W3C//DTD SVG 1.1//EN'  'http://www.w3.org/Graphics/SVG/1.1/DTD/svg11.dtd'>
<svg version="1.1" xmlns="http://www.w3.org/2000/svg">
<defs>
<font id="BankSansEFCY-BolObl" horiz-adv-x="650">
<font-face font-family="Bank Sans EF CY" font-style="italic" font-weight="700" ascent="758" bbox="-39 -250 1238 920" cap-height="667" descent="-242" panose-1="2 0 5 4 3 0 0 2 0 4" slope="8" underline-position="-133" underline-thickness="20" unicode-range="U+0020-00FE" units-per-em="1000" x-height="512"/>
<missing-glyph/>
<glyph glyph-name="space" horiz-adv-x="317" unicode=" "/>
<glyph d="M417 667l-73 -453h-134l43 453h164zM351 157l-22 -157h-164l22 157h164z" glyph-name="exclam" horiz-adv-x="412" unicode="!"/>
<glyph d="M504 750l-57 -293h-102l25 293h134zM299 750l-56 -293h-102l24 293h134z" glyph-name="quotedbl" horiz-adv-x="459" unicode='"'/>
<glyph d="M667 383h-103l-29 -99h86l-17 -116h-107l-50 -168h-130l51 168h-94l-51 -168h-130l51 168h-85l17 116h104l30 99h-87l17 116h106l51 168h131l-51 -168h93l51 168h131l-51 -168h83zM433 383h-93l-29 -99h93z" glyph-name="numbersign" unicode="#"/>
<glyph d="M762 257l-14 -100q-16 -121 -109 -148q-31 -9 -70 -9h-110l-17 -120h-126l17 120h-126q-122 0 -135 98q-2 12 -2 23v14q0 7 2 16l4 29l167 26l-8 -62h118l16 118h-114q-133 1 -134 115v15q0 7 2 16l14 102q15 116 95 145q34 12 84 12h110l12 83h126l-12 -83h106 q126 0 140 -85q2 -13 2 -26q0 -2 -3 -38l-3 -26l-168 -27l8 58h-103l-16 -116h112q136 -2 137 -119q0 -10 -2 -31zM478 144h81q19 0 23 16q1 4 2 7l10 71v6q-2 17 -22 18h-78zM298 498l-9 -69q0 -1 -1 -3v-4q2 -15 21 -15h80l16 116h-78q-24 0 -28 -21q-1 -2 -1 -4z" glyph-name="dollar" horiz-adv-x="785" unicode="$"/>
<glyph d="M994 250l-24 -168q-10 -70 -78 -81q-10 -1 -20 -1h-197q-59 0 -74 46q-3 11 -3 23q0 10 1 13l24 168q10 72 79 82q10 1 19 1h197q59 0 74 -46q3 -11 3 -23q0 -11 -1 -14zM919 667l-597 -667h-124l597 667h124zM518 584l-24 -168q-10 -69 -76 -80q-12 -2 -23 -2h-197 q-62 0 -74 49q-2 9 -2 19q0 11 1 14l24 168q10 72 79 82q10 1 19 1h197q59 0 74 -46q3 -11 3 -23q0 -11 -1 -14zM253 552l-14 -103q-1 -4 -1 -9q2 -13 19 -14h105q22 2 26 23l14 103v6q-2 16 -23 17h-97q-25 -2 -29 -23zM729 218l-14 -103q-1 -4 -1 -9q2 -13 19 -14h105 q22 2 26 23l14 103v4q1 2 1 3q-2 15 -24 16h-97q-25 -2 -29 -23z" glyph-name="percent" horiz-adv-x="1024" unicode="%"/>
<glyph d="M897 0h-202l-76 82q-8 -7 -23 -20q-52 -46 -85 -56q-19 -6 -40 -6h-224q-99 0 -115 72q-2 12 -2 24q0 8 2 23l16 113q7 40 56 75l127 90l-19 20q-27 28 -29 61q0 7 1 9l13 94q12 75 88 84q15 2 31 2h254q87 0 101 -51q3 -13 3 -28q0 -7 -2 -27l-9 -68l-160 -26l13 90 h-141q-25 0 -29 -20q-1 -3 -1 -4l-5 -35l214 -232l164 140l75 -88l-161 -139zM541 168l-130 142l-110 -93l-9 -66q-1 -3 -1 -7q2 -13 19 -14h181z" glyph-name="ampersand" horiz-adv-x="965" unicode="&amp;"/>
<glyph d="M305 750l-59 -293h-102l21 293h140z" glyph-name="quotesingle" horiz-adv-x="260" unicode="'"/>
<glyph d="M389 -46l-46 -122q-160 45 -209 136q-27 52 -27 124q0 34 6 74l47 336q23 169 133 250q70 51 191 84l12 -122q-116 -32 -158 -97q-27 -44 -36 -115l-47 -336q-4 -27 -4 -54q0 -88 65 -127q29 -18 73 -31z" glyph-name="parenleft" horiz-adv-x="396" unicode="("/>
<glyph d="M5 -168l-11 122q117 32 159 102q25 43 34 110l47 336q4 27 4 54q0 88 -66 128q-29 17 -72 30l46 122q163 -46 211 -142q24 -50 24 -119q0 -40 -5 -73l-47 -336q-24 -170 -136 -252q-70 -50 -188 -82z" glyph-name="parenright" horiz-adv-x="396" unicode=")"/>
<glyph d="M513 563l-124 -30l68 -91l-106 -69l-49 104l-77 -104l-86 69l92 94l-114 27l51 112l108 -47l7 122h117l-25 -122l117 47z" glyph-name="asterisk" horiz-adv-x="472" unicode="*"/>
<glyph d="M608 189h-183l-26 -186h-146l26 186h-185l19 136h185l26 184h146l-26 -184h183z" glyph-name="plus" unicode="+"/>
<glyph d="M117 0h-72l22 157h164l-22 -150l-115 -156h-79z" glyph-name="comma" horiz-adv-x="254" unicode=","/>
<glyph d="M488 189h-394l19 136h394z" glyph-name="hyphen" horiz-adv-x="530" unicode="-"/>
<glyph d="M488 189h-394l19 136h394z" glyph-name="hyphen" horiz-adv-x="530" unicode="­"/>
<glyph d="M231 157l-22 -157h-164l22 157h164z" glyph-name="period" horiz-adv-x="254" unicode="."/>
<glyph d="M656 717l-498 -767h-155l498 767h155z" glyph-name="slash" horiz-adv-x="564" unicode="/"/>
<glyph d="M841 510l-49 -353q-12 -88 -86 -132q-43 -25 -93 -25h-376q-90 0 -123 66q-14 29 -14 63v13q0 6 2 15l49 353q13 97 93 137q39 20 86 20h376q90 0 123 -66q14 -28 14 -63q0 -11 -2 -28zM312 500l-47 -333q0 -1 -1 -4v-4q2 -14 20 -15h320q19 0 23 14q1 4 2 9l47 333v6 q-2 16 -23 17h-312q-25 -2 -29 -23z" glyph-name="zero" horiz-adv-x="850" unicode="0"/>
<glyph d="M658 0h-467l18 130h160l54 383l-162 -8l15 103l335 76l-78 -554h143z" glyph-name="one" horiz-adv-x="850" unicode="1"/>
<glyph d="M642 228l150 -25l-10 -70q-11 -77 -77 -113q-36 -20 -79 -20h-541l12 86q8 57 69 98l483 312l4 28h-319l-19 -133l-161 26l15 104q13 93 92 129q37 17 80 17h351q113 0 124 -90q1 -9 1 -18q0 -7 -2 -27l-5 -34q-12 -73 -84 -120l-360 -234h264z" glyph-name="two" horiz-adv-x="850" unicode="2"/>
<glyph d="M803 237l-13 -93q-14 -106 -104 -135q-29 -9 -62 -9h-394q-133 2 -134 114q0 15 3 32l10 68l167 27l-13 -97h320q38 0 46 29q2 7 3 13l6 48q2 14 2 17q0 23 -26 26q-6 1 -12 1h-193l17 121h185q36 0 45 40q2 7 3 17l4 29q0 1 1 5v4q-2 28 -36 29h-302l-13 -95l-162 27 l10 66q20 136 154 145q9 1 18 1h380q120 -2 121 -118v-17q0 -5 -2 -18l-9 -60q-10 -51 -51 -82q-19 -15 -40 -24q18 -6 36 -17q35 -26 36 -75v-10q0 -6 -1 -9z" glyph-name="three" horiz-adv-x="850" unicode="3"/>
<glyph d="M809 144h-135l-20 -144h-164l20 144h-429l18 128l497 395h151l-54 -382h135zM529 285l28 197l-242 -197h214z" glyph-name="four" horiz-adv-x="850" unicode="4"/>
<glyph d="M266 667h538l-49 -143h-384l-27 -94h308q98 0 129 -75q10 -26 10 -57q0 -9 -2 -26l-16 -112q-16 -102 -95 -141q-40 -19 -91 -19h-275q-122 0 -174 25l-14 156q77 -37 211 -37h235q36 0 42 33v3l10 74v4q1 3 1 4q-2 23 -29 24h-433z" glyph-name="five" horiz-adv-x="850" unicode="5"/>
<glyph d="M665 682l73 -126q-255 0 -344 -60q-46 -32 -73 -94v-2q33 12 88 12h252q130 -10 135 -113q0 -18 -3 -37l-14 -103q-16 -113 -89 -144q-35 -15 -84 -15h-356q-113 0 -134 72q-5 19 -5 43q0 20 3 43l24 176q28 210 244 298q125 50 283 50zM618 182l7 46q0 2 1 6v4 q-4 29 -38 30h-202q-61 0 -94 -16l-10 -73v-3q-1 -3 -1 -4q2 -27 35 -28h256q38 0 45 32q1 3 1 6z" glyph-name="six" horiz-adv-x="850" unicode="6"/>
<glyph d="M837 539l-377 -539h-179l372 526h-340l-19 -136l-149 27l35 250h675z" glyph-name="seven" horiz-adv-x="850" unicode="7"/>
<glyph d="M617 0h-384q-132 2 -133 114q0 16 3 36l12 86q9 69 69 99q7 3 13 5l20 6l-14 4q-42 13 -49 60q-1 9 -1 17q0 6 2 21l11 72q14 104 107 135q35 12 77 12h337q127 0 144 -95q2 -13 2 -26q0 -9 -2 -26l-11 -72q-9 -74 -73 -97q-13 -5 -20 -5q67 -19 75 -74q1 -8 1 -16v-10 q0 -7 -1 -10l-12 -86q-20 -139 -150 -149q-12 -1 -23 -1zM605 288h-279q-35 0 -43 -32l-2 -10l-10 -68q0 -2 -1 -4v-4q2 -28 35 -29h279q37 2 44 37l10 68q1 4 1 13q-2 28 -34 29zM628 526h-259q-33 0 -41 -27q-2 -7 -3 -15l-7 -48q-1 -3 -1 -10q2 -26 35 -27h259 q37 2 44 37l7 48q0 2 1 6v5q-9 28 -35 31z" glyph-name="eight" horiz-adv-x="850" unicode="8"/>
<glyph d="M276 -15l-72 126q256 0 345 60q46 32 72 94v2q-35 -12 -89 -12h-252q-122 0 -134 90q-1 12 -1 24q0 17 3 36l15 103q16 113 89 144q35 15 84 15h356q113 0 134 -72q5 -19 5 -43q0 -21 -3 -43l-25 -176q-32 -214 -252 -301q-121 -47 -275 -47zM323 485l-7 -46 q-1 -4 -1 -10q4 -29 38 -30h204q61 0 94 16l10 73v7q-2 27 -34 28h-258q-38 0 -45 -33q-1 -3 -1 -5z" glyph-name="nine" horiz-adv-x="850" unicode="9"/>
<glyph d="M251 157l-22 -157h-164l22 157h164zM296 478l-22 -157h-164l22 157h164z" glyph-name="colon" horiz-adv-x="254" unicode=":"/>
<glyph d="M296 478l-22 -157h-164l22 157h164zM137 0h-72l22 157h164l-22 -150l-115 -156h-79z" glyph-name="semicolon" horiz-adv-x="254" unicode=";"/>
<glyph d="M583 11l-487 192l15 109l541 190l-19 -138l-322 -103l291 -112z" glyph-name="less" unicode="&lt;"/>
<glyph d="M625 309h-514l19 136h514zM591 70h-514l19 136h514z" glyph-name="equal" unicode="="/>
<glyph d="M138 502l487 -192l-15 -109l-541 -190l19 138l322 105l-291 110z" glyph-name="greater" unicode="&gt;"/>
<glyph d="M257 214l9 64q7 47 40 73q9 7 19 14l168 114l5 39v7q-2 15 -21 16h-188l-13 -92l-153 23l10 71q12 90 92 116q26 8 55 8h263q85 0 110 -58q7 -18 7 -39v-9q0 -6 -1 -9l-9 -62q-9 -52 -30 -72q-10 -9 -25 -18l-172 -114l-10 -72h-156zM409 157l-22 -157h-164l22 157h164z " glyph-name="question" horiz-adv-x="628" unicode="?"/>
<glyph d="M419 157l28 200q20 135 142 153q18 2 36 2h324l-52 -376h142l45 321q3 20 3 37q0 103 -107 116q-18 2 -38 2h-405q-171 -2 -200 -191l-47 -330q-4 -26 -4 -51q0 -111 92 -139q38 -12 93 -12h352l-68 -127h-350q-236 0 -268 183q-4 27 -4 56q0 25 5 62l54 382 q19 130 119 215q93 79 210 79h487q160 0 210 -112q20 -44 20 -101q0 -26 -4 -51l-55 -390q-9 -60 -47 -76q-23 -9 -57 -9h-521q-103 0 -130 76q-8 23 -8 49q0 16 3 32zM602 353l-27 -194q0 -1 -1 -4v-4q2 -14 20 -15h146l33 240h-142q-25 -2 -29 -23z" glyph-name="at" horiz-adv-x="1298" unicode="@"/>
<glyph d="M819 0h-173l-42 115h-358l-74 -115h-186l440 667h145zM562 253l-86 248l-159 -248h245z" glyph-name="A" horiz-adv-x="806" unicode="A"/>
<glyph d="M787 228l-11 -78q-12 -79 -37 -108q-39 -42 -135 -42h-514l93 667h491q127 0 144 -95q2 -13 2 -26q0 -9 -2 -26l-11 -72q-11 -75 -74 -97q-12 -5 -20 -5q67 -19 75 -74q1 -8 1 -16q0 -7 -2 -28zM615 178l9 58q1 6 1 10v6q0 23 -20 25q-5 1 -10 1h-302l-20 -137h298 q37 2 44 37zM642 441l6 37q2 13 2 20q0 23 -14 27q-7 1 -18 1h-291l-17 -122h288q37 2 44 37z" glyph-name="B" horiz-adv-x="825" unicode="B"/>
<glyph d="M805 258l-15 -102q-14 -104 -77 -136q-40 -20 -101 -20h-372q-85 0 -121 63q-17 32 -17 70q0 8 2 23l50 353q12 92 53 125q42 33 126 33h371q99 0 128 -74q10 -25 10 -55q0 -8 -2 -29l-13 -90l-167 -25l18 129h-358l-53 -379h358l19 139z" glyph-name="C" horiz-adv-x="837" unicode="C"/>
<glyph d="M872 510l-49 -353q-14 -99 -69 -133q-41 -24 -110 -24h-554l93 667h554q90 0 123 -66q14 -28 14 -63q0 -11 -2 -28zM657 144l53 379h-383l-53 -379h383z" glyph-name="D" horiz-adv-x="884" unicode="D"/>
<glyph d="M711 0h-621l93 667h614l-20 -144h-450l-16 -115h296l-20 -141h-296l-17 -123h457z" glyph-name="E" horiz-adv-x="769" unicode="E"/>
<glyph d="M758 523h-431l-16 -115h296l-20 -144h-296l-38 -264h-164l94 667h595z" glyph-name="F" horiz-adv-x="699" unicode="F"/>
<glyph d="M846 377l-31 -221q-14 -107 -83 -139q-39 -17 -96 -17h-396q-91 0 -124 67q-14 28 -14 63q0 9 2 26l50 354q13 94 57 127q42 30 122 30h396q97 0 127 -73q11 -26 11 -57q0 -10 -2 -27l-5 -35l-168 -27l11 75h-383l-53 -379h382l14 103h-195l18 130h360z" glyph-name="G" horiz-adv-x="873" unicode="G"/>
<glyph d="M795 0h-164l38 276h-377l-38 -276h-164l93 667h164l-35 -248h377l35 248h164z" glyph-name="H" horiz-adv-x="885" unicode="H"/>
<glyph d="M347 667l-93 -667h-164l93 667h164z" glyph-name="I" horiz-adv-x="344" unicode="I"/>
<glyph d="M709 667l-72 -511q-14 -98 -69 -132q-41 -24 -110 -24h-259q-91 0 -124 67q-14 28 -14 63q0 9 2 26l19 134l168 24l-24 -170h246l73 523h164z" glyph-name="J" horiz-adv-x="699" unicode="J"/>
<glyph d="M825 0h-230l-298 307l-43 -307h-164l93 667h164l-40 -283l333 283h229l-396 -321z" glyph-name="K" horiz-adv-x="808" unicode="K"/>
<glyph d="M682 0h-592l93 667h164l-73 -523h428z" glyph-name="L" horiz-adv-x="682" unicode="L"/>
<glyph d="M909 0h-158l56 405l-289 -331l-207 327l-56 -401h-165l93 667h153l212 -347l308 347h146z" glyph-name="M" horiz-adv-x="999" unicode="M"/>
<glyph d="M793 0h-141l-352 438l-61 -438h-150l93 667h141l351 -439l61 439h151z" glyph-name="N" horiz-adv-x="882" unicode="N"/>
<glyph d="M865 510l-49 -353q-14 -99 -69 -133q-41 -24 -110 -24h-397q-90 0 -123 66q-14 29 -14 63q0 8 2 28l49 353q13 96 61 129q42 28 118 28h397q90 0 123 -66q14 -28 14 -63q0 -11 -2 -28zM650 144l53 379h-383l-53 -379h383z" glyph-name="O" horiz-adv-x="877" unicode="O"/>
<glyph d="M818 524l-23 -164q-11 -87 -48 -116q-37 -27 -115 -27h-348l-30 -217h-164l93 667h512q109 0 123 -88q2 -12 2 -25q0 -19 -2 -30zM637 398l10 69q3 16 3 27q-2 28 -34 29h-288l-23 -162h288q39 2 44 37z" glyph-name="P" horiz-adv-x="798" unicode="P"/>
<glyph d="M504 -137l-41 137h-223q-90 0 -123 66q-14 29 -14 63q0 8 2 28l49 353q13 96 61 129q42 28 118 28h397q90 0 123 -66q14 -28 14 -63q0 -11 -2 -28l-49 -353q-14 -99 -69 -133q-41 -24 -110 -24h-26l40 -137h-147zM650 144l53 379h-383l-53 -379h152l-28 94h150l28 -94h81 z" glyph-name="Q" horiz-adv-x="877" unicode="Q"/>
<glyph d="M818 524l-19 -138q-11 -87 -48 -116q-37 -27 -115 -27h-46l228 -243h-212l-230 243h-88l-34 -243h-164l93 667h512q109 0 123 -88q2 -12 2 -25q0 -9 -2 -30zM641 425l8 57v3q1 7 1 10q-2 27 -34 28h-288l-19 -136h288q39 2 44 38z" glyph-name="R" horiz-adv-x="818" unicode="R"/>
<glyph d="M773 257l-14 -100q-16 -121 -109 -148q-31 -9 -70 -9h-362q-122 0 -135 98q-2 12 -2 23q0 16 2 30l4 29l167 26l-8 -62h347l16 118h-343q-129 7 -134 115q0 11 2 31l14 102q15 116 95 145q34 12 84 12h342q130 0 142 -89q1 -11 1 -22q0 -2 -3 -38l-3 -26l-168 -27l8 58 h-332l-16 -116h341q135 -2 136 -119q0 -10 -2 -31z" glyph-name="S" horiz-adv-x="805" unicode="S"/>
<glyph d="M789 523h-275l-73 -523h-164l73 523h-275l20 144h714z" glyph-name="T" horiz-adv-x="719" unicode="T"/>
<glyph d="M857 667l-71 -510q-14 -100 -70 -133q-41 -24 -109 -24h-367q-89 0 -122 65q-15 29 -15 65q0 7 2 27l71 510h164l-73 -523h353l73 523h164z" glyph-name="U" horiz-adv-x="847" unicode="U"/>
<glyph d="M872 667l-427 -667h-138l-224 667h180l141 -480l280 480h188z" glyph-name="V" horiz-adv-x="769" unicode="V"/>
<glyph d="M1092 667l-319 -667h-147l-87 402l-177 -402h-145l-134 667h177l62 -415l188 415h149l69 -425l182 425h182z" glyph-name="W" horiz-adv-x="989" unicode="W"/>
<glyph d="M789 0h-212l-158 244l-230 -244h-185l335 345l-232 322h211l137 -209l198 209h185l-305 -312z" glyph-name="X" horiz-adv-x="793" unicode="X"/>
<glyph d="M865 667l-359 -368l-42 -299h-165l41 293l-264 374h186l168 -245l238 245h197z" glyph-name="Y" horiz-adv-x="755" unicode="Y"/>
<glyph d="M698 0h-661l14 103l448 423h-360l20 141h628l-14 -99l-464 -427h408z" glyph-name="Z" horiz-adv-x="743" unicode="Z"/>
<glyph d="M315 -150h-254l136 967h254l-16 -113h-104l-104 -740h104z" glyph-name="bracketleft" horiz-adv-x="396" unicode="["/>
<glyph d="M266 714l282 -767h-155l-282 767h155z" glyph-name="backslash" horiz-adv-x="564" unicode="\"/>
<glyph d="M291 -150h-254l16 114h104l104 740h-104l16 113h254z" glyph-name="bracketright" horiz-adv-x="396" unicode="]"/>
<glyph d="M634 416h-140l-85 218l-148 -218h-129l235 334h126z" glyph-name="asciicircum" unicode="^"/>
<glyph d="M618 -250h-657l19 136h657z" glyph-name="underscore" unicode="_"/>
<glyph d="M487 630l-79 -40l-206 133l88 89z" glyph-name="grave" horiz-adv-x="500" unicode="`"/>
<glyph d="M77 128l8 54q20 120 158 121h254l9 60v6q-2 17 -20 18h-210l-7 -50l-151 20l4 33q11 86 93 113q28 9 58 9h268q124 -2 125 -104q0 -7 -2 -27l-53 -381h-412q-123 2 -124 99v14q0 6 2 15zM237 168l-2 -18q-1 -3 -1 -8q2 -16 26 -17h212l10 68h-215q-25 0 -29 -21 q-1 -3 -1 -4z" glyph-name="a" horiz-adv-x="678" unicode="a"/>
<glyph d="M508 159l27 191v6q-2 19 -26 20h-133q-73 0 -97 -15l-31 -225h228q26 0 31 17q0 3 1 6zM506 0h-433l99 705l159 25l-33 -233q32 15 97 15h186q102 0 115 -79q2 -11 2 -22q0 -9 -2 -24l-37 -261q-25 -122 -153 -126z" glyph-name="b" horiz-adv-x="707" unicode="b"/>
<glyph d="M498 213l153 -25l-8 -58q-23 -129 -156 -130h-281q-124 2 -125 102v13q0 6 2 15l34 242q13 96 73 124q37 16 95 16h271q116 0 123 -92v-14v-17q0 -7 -2 -18l-6 -38l-159 -26l9 69h-220q-24 0 -30 -19q0 -4 -1 -7l-27 -190q-1 -3 -1 -7q2 -16 24 -17h222z" glyph-name="c" horiz-adv-x="685" unicode="c"/>
<glyph d="M270 351l-27 -190q-1 -3 -1 -8q2 -16 24 -17h206q23 0 27 20q1 3 1 4l29 203q-3 3 -9 6q-17 7 -37 7h-181q-26 0 -31 -20q-1 -3 -1 -5zM493 0h-298q-87 0 -109 64q-6 17 -6 37q0 7 2 22l36 257q20 131 158 132h187q58 0 84 -15l31 218l160 25l-87 -612 q-19 -127 -158 -128z" glyph-name="d" horiz-adv-x="707" unicode="d"/>
<glyph d="M677 381l-26 -182h-405l-7 -51v-5q0 -18 21 -18h227l6 40l147 -17l-2 -17q-17 -126 -149 -131h-11h-273q-123 2 -124 103v14q0 7 2 16l34 239q15 97 75 124q36 16 96 16h262q100 0 122 -49q8 -19 8 -45q0 -18 -3 -37zM515 315l6 47q0 2 1 4v5q-2 15 -23 16h-201 q-21 0 -26 -15q-1 -5 -2 -9l-7 -48h252z" glyph-name="e" horiz-adv-x="688" unicode="e"/>
<glyph d="M376 376h-94l-81 -578l-160 -26l85 604h-54l19 136h54l13 86q19 115 124 130q17 2 36 2h132l-39 -136h-73q-24 -2 -29 -25l-8 -57h94z" glyph-name="f" horiz-adv-x="318" unicode="f"/>
<glyph d="M84 136l35 249q26 123 156 127h430l-84 -599q-14 -98 -92 -135q-35 -16 -76 -16h-270q-103 0 -128 79q-6 19 -6 40v10q0 6 1 9l4 22l158 20l-6 -44h233q23 2 28 25l14 102q-33 -15 -75 -15h-207q-98 0 -114 75q-3 13 -3 27q0 7 2 24zM270 351l-25 -180q-1 -3 -1 -8 q2 -16 26 -17h181q23 0 39 6q6 4 10 7l30 217h-231q-22 0 -27 -16q-1 -5 -2 -9z" glyph-name="g" horiz-adv-x="707" unicode="g"/>
<glyph d="M333 744l-35 -247q33 15 82 15h178q88 0 110 -63q6 -18 6 -38q0 -9 -2 -22l-54 -389h-156l49 354v6q-2 15 -21 16h-158q-39 0 -52 -13l-51 -363h-156l101 719z" glyph-name="h" horiz-adv-x="685" unicode="h"/>
<glyph d="M300 512l-71 -512h-156l71 512h156zM333 740l-20 -136h-156l20 136h156z" glyph-name="i" horiz-adv-x="302" unicode="i"/>
<glyph d="M300 512l-75 -534q-20 -141 -57 -196h-156q38 56 58 197l74 533h156zM333 740l-20 -136h-156l20 136h156z" glyph-name="j" horiz-adv-x="302" unicode="j"/>
<glyph d="M650 0h-202l-190 212l-29 -212h-156l100 715l160 25l-61 -427l228 199h199l-287 -243z" glyph-name="k" unicode="k"/>
<glyph d="M333 741l-104 -741h-156l100 716z" glyph-name="l" horiz-adv-x="302" unicode="l"/>
<glyph d="M144 512h614q123 -2 124 -104q0 -8 -2 -28l-53 -380h-156l49 353v3q1 3 1 4q-2 15 -23 16h-118l-52 -376h-156l52 376h-143l-52 -376h-156z" glyph-name="m" horiz-adv-x="894" unicode="m"/>
<glyph d="M144 512h408q109 0 120 -84q1 -9 1 -18t-2 -26l-53 -384h-156l49 352q0 2 1 4v3q-2 16 -22 17h-209l-52 -376h-156z" glyph-name="n" horiz-adv-x="685" unicode="n"/>
<glyph d="M686 372l-33 -235q-16 -108 -104 -130q-27 -7 -62 -7h-282q-123 2 -124 103q0 15 3 33l33 238q15 110 104 132q27 6 60 6h277q108 0 126 -66q5 -18 5 -39q0 -16 -3 -35zM270 351l-27 -190q-1 -4 -1 -10q2 -14 22 -15h209q20 0 25 14q1 5 2 11l27 190q0 1 1 4v4 q-2 16 -25 17h-203q-23 0 -28 -17z" glyph-name="o" horiz-adv-x="699" unicode="o"/>
<glyph d="M285 512h298q87 0 109 -64q6 -17 6 -37q0 -9 -2 -22l-37 -257q-21 -131 -158 -132h-187q-58 0 -84 15l-30 -218l-160 -25l86 612q19 127 159 128zM508 161l27 190q0 1 1 4v4q-2 16 -24 17h-206q-23 0 -27 -20q-1 -3 -1 -4l-29 -203q3 -4 8 -7q15 -6 37 -6h181q27 0 32 20 q1 3 1 5z" glyph-name="p" horiz-adv-x="707" unicode="p"/>
<glyph d="M266 512h430l-99 -705l-159 -25l33 233q-33 -15 -88 -15h-178q-123 2 -124 104q0 8 2 28l36 257q12 84 86 112q28 11 61 11zM270 351l-26 -190q-1 -3 -1 -8q2 -16 26 -17h172q23 0 39 6q6 4 10 7l31 227h-222q-22 0 -27 -16q-1 -5 -2 -9z" glyph-name="q" horiz-adv-x="697" unicode="q"/>
<glyph d="M144 512h292q122 -2 123 -104q0 -8 -2 -28l-13 -95l-159 -15l12 82v6q0 18 -21 18h-95l-52 -376h-156z" glyph-name="r" horiz-adv-x="524" unicode="r"/>
<glyph d="M635 200l-10 -71q-16 -115 -126 -127q-15 -2 -31 -2h-279q-81 0 -109 54q-10 21 -10 46v10q0 7 1 10l4 27l155 13l-4 -30h221q20 0 24 16q1 4 2 7l3 21v5q-2 15 -20 16h-231q-117 2 -118 94v3.5v3.5t0.5 3t0.5 4v3.5v3.5l1 4l9 67q12 87 86 118q32 13 68 13h264 q84 0 110 -57q8 -20 8 -43v-11q0 -7 -1 -11l-3 -23l-156 -15l4 30h-200q-23 0 -27 -20q-1 -2 -1 -3l-2 -17q-1 -3 -1 -7q2 -14 22 -15h221q126 -1 127 -97q0 -8 -2 -23z" glyph-name="s" horiz-adv-x="662" unicode="s"/>
<glyph d="M465 376h-184l-33 -240h109l14 102l153 -21l-8 -58q-26 -158 -184 -159h-107q-98 0 -125 75q-8 24 -8 52q0 15 3 33l30 216h-64l19 136h64l21 145l159 25l-24 -170h184z" glyph-name="t" horiz-adv-x="512" unicode="t"/>
<glyph d="M613 0h-410q-115 0 -122 93v11q0 9 2 24l54 384h156l-49 -352q-1 -3 -1 -7q2 -16 22 -17h211l52 376h156z" glyph-name="u" horiz-adv-x="680" unicode="u"/>
<glyph d="M707 512l-320 -512h-139l-177 512h178l98 -329l188 329h172z" glyph-name="v" horiz-adv-x="636" unicode="v"/>
<glyph d="M912 512l-243 -512h-147l-58 293l-137 -293h-146l-100 512h174l40 -296l131 296h137l57 -299l124 299h168z" glyph-name="w" horiz-adv-x="851" unicode="w"/>
<glyph d="M615 0h-202l-104 157l-142 -157h-182l257 255l-177 257h202l85 -139l126 139h182l-241 -237z" glyph-name="x" horiz-adv-x="605" unicode="x"/>
<glyph d="M670 512l-347 -582q-43 -69 -83 -118q-12 -14 -28 -30h-165l27 30q35 41 73 94l68 102l-159 504h183l79 -334l174 334h178z" glyph-name="y" horiz-adv-x="594" unicode="y"/>
<glyph d="M575 0h-534l13 96l317 280h-250l19 136h497l-12 -91l-324 -285h293z" glyph-name="z" horiz-adv-x="616" unicode="z"/>
<glyph d="M326 -150h-135q-70 0 -94 61q-8 21 -8 46q0 8 2 23l21 154q5 34 5 58q0 63 -54 79q-5 1 -9 2l17 123q65 14 86 76q5 18 9 41l25 184q8 64 68 100q37 21 78 21h125l-16 -114h-38q-57 0 -71 -56q-2 -9 -4 -19l-28 -199q-10 -65 -74 -87q-12 -4 -22 -6q-3 0 -6 -0.5t-5 -1 t-4 -0.5h-1l14 -4q41 -8 62 -41q10 -17 10 -37q0 -2 -1 -7v-6l-26 -190q-3 -15 -3 -28q2 -57 55 -58h38z" glyph-name="braceleft" horiz-adv-x="396" unicode="{"/>
<glyph d="M382 -120h-146l122 870h146z" glyph-name="bar" unicode="|"/>
<glyph d="M161 -150h-135l16 114h38q68 2 78 86l26 190q2 14 7.5 26t13 21t17.5 16.5t19 12t19 8.5t16.5 6t13.5 4l7 1q-32 0 -59 21q-27 22 -28 58v7q0 6 1 9l28 199q1 4 1 10v11q-4 52 -56 54h-38l16 114h125q72 0 101 -53q12 -23 12 -50v-9q0 -6 -1 -9l-25 -184q-3 -18 -3 -33 q0 -64 57 -82q4 -1 7 -2l-17 -123q-68 -14 -88 -83q-6 -21 -10 -56l-21 -154q-8 -68 -63 -106q-35 -24 -75 -24z" glyph-name="braceright" horiz-adv-x="396" unicode="}"/>
<glyph d="M601 768l69 -43q-82 -133 -177 -134q-33 0 -94 28q-50 22 -82 22q-47 -1 -83 -61l-65 47q48 87 91 116q36 23 80 23q33 0 98 -27q53 -22 85 -22q48 1 78 51z" glyph-name="asciitilde" unicode="~"/>
<glyph glyph-name="nbspace" horiz-adv-x="317" unicode=" "/>
<glyph d="M360 -120h-106l17 120h-70q-110 0 -132 82q-5 19 -5 40v15q0 7 2 16l29 209q17 118 123 144q26 6 54 6h70l16 108h106l-16 -108h73q115 0 133 -90q3 -15 3 -31q0 -8 -2 -29l-5 -39l-160 -25l11 78h-72l-33 -240h72l11 84l153 -22l-7 -49q-13 -88 -83 -127 q-41 -22 -92 -22h-73zM250 353l-27 -194q0 -1 -1 -4v-4q2 -14 20 -15h47l33 240h-43q-25 -2 -29 -23z" glyph-name="cent" unicode="¢"/>
<glyph d="M625 0h-532l20 143h84l18 130h-84l18 132h84l15 103q24 158 180 159h282q111 0 118 -87q1 -8 1 -15q0 -27 -4 -48l-6 -44l-168 -26l11 76h-211q-32 0 -40 -33q-1 -5 -2 -11l-11 -74h172l-18 -132h-172l-18 -130h227q30 0 36 20q1 5 2 9l9 68l161 -26l-6 -41 q-24 -163 -149 -172q-9 -1 -17 -1z" glyph-name="sterling" horiz-adv-x="850" unicode="£"/>
<glyph d="M652 111l-63 -64l-93 93q-60 -41 -127 -41q-67 1 -126 41l-94 -93l-64 64l95 93q-41 61 -41 122q1 69 41 123l-95 95l64 64l94 -93q61 39 128 39q67 -1 121 -39l93 93l64 -64l-92 -95q41 -60 41 -124q-1 -61 -41 -121zM479 327q0 61 -46 93q-26 18 -60 18q-88 0 -110 -72 q-5 -18 -5 -39q0 -64 49 -95q27 -17 61 -17q70 0 98 57q13 26 13 55z" glyph-name="currency" unicode="¤"/>
<glyph d="M382 -120h-146l46 330h146zM458 420h-146l46 330h146z" glyph-name="brokenbar" unicode="¦"/>
<glyph d="M376 461l371 -154q45 -25 47 -67q0 -22 -4 -42l-13 -97q-10 -70 -76 -104q-3 -1 -4 -2l-17 -120q-11 -70 -77 -98q-28 -12 -58 -12h-332q-88 0 -107 61q-5 15 -5 31v9q0 6 1 9l10 74l162 37l-12 -85h243q21 0 25 18q1 3 1 4l7 50l-372 152q-49 29 -52 71q0 21 4 42l14 97 q10 67 65 101q8 5 16 8l17 119q8 54 60 85q33 19 73 19h317q76 0 100 -57q7 -18 7 -38q0 -12 -1 -15l-8 -57l-162 -39l10 70h-215q-22 0 -27 -19q-1 -3 -1 -5zM636 195l-323 147q-10 -4 -14 -7q-12 -14 -16 -30l-8 -56l324 -144q7 2 13 6q12 10 16 28z" glyph-name="section" horiz-adv-x="850" unicode="§"/>
<glyph d="M750 397l-18 -127q-18 -134 -117 -211q-78 -59 -179 -59h-177q-131 0 -191 95q-34 55 -34 129q0 23 3 46l18 127q18 134 117 210q79 60 180 60h177q130 0 190 -94q34 -55 34 -129q0 -24 -3 -47zM656 270l18 127q3 20 3 37q0 100 -70 144q-39 24 -92 24h-167 q-109 0 -172 -89q-36 -51 -45 -116l-18 -127q-3 -20 -3 -37q0 -103 74 -146q38 -21 89 -21h167q110 0 173 91q34 49 43 113zM568 292l-7 -50q-9 -65 -66 -85q-20 -7 -43 -7h-165q-68 0 -85 50q-4 13 -4 28v9q0 6 1 9l25 175q12 76 80 92q17 4 34 4h175q75 -2 76 -66v-8 q0 -5 -1 -8l-8 -52l-121 -19l7 50h-90q-25 0 -30 -18q0 -4 -1 -7l-16 -113q0 -2 -1 -4v-3q2 -15 20 -16h95l8 55z" glyph-name="copyright" horiz-adv-x="695" unicode="©"/>
<glyph d="M583 87l-74 -60l-171 178l14 95l221 177l56 -59l-156 -165zM327 87l-74 -60l-171 178l14 95l221 177l56 -59l-155 -165z" glyph-name="guillemotleft" horiz-adv-x="611" unicode="«"/>
<glyph d="M627 325l-45 -322h-146l26 186h-368l19 136h514z" glyph-name="logicalnot" unicode="¬"/>
<glyph d="M566 610l-12 -87q-15 -103 -94 -154q-50 -32 -110 -32h-125q-98 0 -137 75q-17 35 -17 79v16q0 7 2 16l12 87q15 100 92 153q51 34 113 34h125q98 0 136 -77q17 -35 17 -78q0 -11 -2 -32zM483 525l12 83q2 16 2 24q0 72 -57 95q-19 7 -42 7h-109q-77 0 -115 -71 q-13 -26 -18 -55l-12 -83q-2 -16 -2 -24q0 -75 60 -96q18 -6 40 -6h109q79 0 115 73q12 25 17 53zM426 487h-80l-46 58h-22l-8 -58h-64l25 180h153q41 -1 42 -33v-4q-1 -3 -1 -4l-5 -39q-4 -31 -32 -39q-6 -2 -12 -2zM358 600l1 8v3q0 9 -9 9h-61l-5 -32h61q11 2 13 12z" glyph-name="registered" horiz-adv-x="481" unicode="®"/>
<glyph d="M471 598q0 -96 -71 -140q-40 -24 -93 -24q-105 0 -148 77q-20 38 -20 87q0 89 69 135q42 27 97 27q94 0 140 -69q26 -41 26 -93zM370 598q0 46 -37 61q-13 5 -28 5q-48 0 -62 -43q-3 -11 -3 -23q0 -53 43 -65q11 -3 22 -3q50 0 62 47q3 10 3 21z" glyph-name="degree" horiz-adv-x="442" unicode="°"/>
<glyph d="M618 262h-183l-15 -108h-146l15 108h-185l19 136h185l16 111h146l-16 -111h183zM582 3h-514l16 116h514z" glyph-name="plusminus" unicode="±"/>
<glyph d="M440 498l106 -18l-8 -59q-8 -57 -67 -72q-16 -4 -33 -4h-322l9 60q7 41 46 65l269 164l1 12h-161l-8 -58l-113 18l7 50q9 64 67 85q21 8 44 8h219q63 -5 66 -51v-9q0 -6 -1 -9l-7 -49q-6 -37 -48 -64q-3 -2 -5 -3l-188 -116h120z" glyph-name="twosuperior" horiz-adv-x="550" unicode="²"/>
<glyph d="M256 507l-10 -68h164q14 0 16 10v4l7 47v5q-3 9 -12 10h-103l10 70h98q12 0 13 13q1 2 1 5l6 42v3q-2 7 -10 8h-154l-10 -67l-113 19l7 48q13 86 97 93q7 1 14 1h209q71 0 79 -52q1 -8 1 -17v-10q0 -7 -1 -10l-8 -55q-4 -23 -24 -38q-8 -5 -21 -11q10 -3 18 -9 q18 -16 19 -37q0 -1 -1 -5v-4l-9 -64q-11 -79 -82 -91q-12 -2 -25 -2h-218q-84 2 -85 73q0 7 2 22l6 48z" glyph-name="threesuperior" horiz-adv-x="550" unicode="³"/>
<glyph d="M579 0h-159l6 47q-34 -56 -102 -57q-64 1 -89 57l-26 -186l-165 -50l98 701h158l-37 -265q-3 -18 -3 -35q2 -88 84 -89q95 2 111 127l36 262h159z" glyph-name="mu" unicode="µ"/>
<glyph d="M544 604l-84 -604h-70l84 604h-64l-84 -604h-70l41 296h-83q-44 0 -63 37q-8 15 -8 31q0 8 1 10l30 214q5 41 48 66q22 13 44 13h333l-9 -63h-46z" glyph-name="paragraph" horiz-adv-x="600" unicode="¶"/>
<glyph d="M255 334l-22 -157h-164l22 157h164z" glyph-name="periodcentered" horiz-adv-x="254" unicode="·"/>
<glyph d="M396 345h-290l14 96h92l28 199l-93 -4l11 78l214 48l-45 -321h83z" glyph-name="onesuperior" horiz-adv-x="397" unicode="¹"/>
<glyph d="M378 27l-56 60l155 166l-109 165l74 59l171 -177l-14 -95zM122 27l-56 60l156 166l-110 165l74 59l171 -177l-14 -95z" glyph-name="guillemotright" horiz-adv-x="625" unicode="»"/>
<glyph d="M1021 667l-597 -667h-124l597 667h124zM456 263h-290l14 96h92l28 199l-93 -4l11 78l214 48l-45 -321h83zM1166 82h-77l-12 -82h-115l12 82h-247l12 90l294 234h101l-31 -221h77zM988 185l13 89l-114 -89h101z" glyph-name="onequarter" horiz-adv-x="1194" unicode="¼"/>
<glyph d="M1070 153l106 -18l-8 -59q-8 -57 -67 -72q-16 -4 -33 -4h-322l9 60q7 41 46 65l269 164l1 12h-161l-8 -58l-113 18l7 50q9 64 67 85q21 8 44 8h219q63 -5 66 -51v-9q0 -6 -1 -9l-7 -49q-6 -37 -48 -64q-3 -2 -5 -3l-188 -116h120zM1021 667l-597 -667h-124l597 667h124z M456 263h-290l14 96h92l28 199l-93 -4l11 78l214 48l-45 -321h83z" glyph-name="onehalf" horiz-adv-x="1228" unicode="½"/>
<glyph d="M245 425l-10 -68h164q14 0 16 10v4l7 47v5q-3 9 -12 10h-103l10 70h98q12 0 13 13q1 2 1 5l6 42v3q-2 7 -10 8h-154l-10 -67l-113 19l7 48q13 86 97 93q7 1 14 1h209q71 0 79 -52q1 -8 1 -17v-10q0 -7 -1 -10l-8 -55q-4 -23 -24 -38q-8 -5 -21 -11q11 -3 18 -9 q18 -16 19 -37v-5q-1 -3 -1 -4l-9 -64q-11 -79 -82 -91q-12 -2 -25 -2h-218q-84 2 -85 73q0 7 2 22l6 48zM1166 82h-77l-12 -82h-115l12 82h-247l12 90l294 234h101l-31 -221h77zM1021 667l-597 -667h-124l597 667h124zM988 185l13 89l-114 -89h101z" glyph-name="threequarters" horiz-adv-x="1194" unicode="¾"/>
<glyph d="M872 510l-49 -353q-14 -102 -75 -135q-40 -22 -104 -22h-554l38 276h-90l20 143h90l35 248h554q90 0 123 -66q14 -28 14 -63q0 -11 -2 -28zM495 419l-20 -143h-183l-18 -132h383l53 379h-383l-15 -104h183z" glyph-name="Eth" horiz-adv-x="884" unicode="Ð"/>
<glyph d="M624 404l-163 -143l125 -146l-118 -103l-125 146l-165 -145l-83 96l165 145l-124 144l118 103l125 -144l163 144z" glyph-name="multiply" unicode="×"/>
<glyph d="M685 819l-257 -92l-60 46l273 147zM865 667l-359 -368l-42 -299h-165l41 293l-264 374h186l168 -245l238 245h197z" glyph-name="Yacute" horiz-adv-x="755" unicode="Ý"/>
<glyph d="M347 667l-13 -92h348q109 0 123 -88q2 -12 2 -25q0 -9 -2 -30l-23 -164q-11 -86 -47 -115q-36 -28 -116 -28h-348l-17 -125h-164l93 667h164zM625 306l10 77q2 16 2 19q-2 28 -34 29h-288l-23 -162h288q40 2 45 37z" glyph-name="Thorn" horiz-adv-x="798" unicode="Þ"/>
<glyph d="M781 225l-13 -96q-16 -115 -126 -127q-15 -2 -31 -2h-172q-81 0 -109 54q-10 21 -10 46v10q0 7 1 10l4 27l155 13l-4 -30h114q20 0 24 16q1 4 2 7l6 46v3q1 2 1 3q0 15 -21 15h-108q-116 2 -117 94v3.5v3.5t0.5 3t0.5 4v3.5v4.5l1 3l10 67q12 81 76 115q31 16 67 16h39 l5 35v6q-2 15 -19 16h-209q-24 -2 -29 -25l-108 -771l-160 -26l85 604h-54l19 136h54l13 86q19 115 124 130q17 2 36 2h298q109 -3 111 -101q0 -18 -3 -35l-26 -187h-140q-25 -2 -29 -23l-2 -17v-5q2 -16 22 -17h98q125 -1 126 -97q0 -8 -2 -23z" glyph-name="germandbls" horiz-adv-x="803" unicode="ß"/>
<glyph d="M388 608l-74 -47l-40 59l61 38l-59 57l150 56l34 -34l72 45l40 -58l-60 -38l148 -144q38 -39 37 -80q0 -9 -2 -30l-44 -304q-19 -127 -158 -128h-298q-87 0 -109 64q-6 17 -6 37q0 7 2 22l35 241q20 131 158 132h163q58 0 84 -15zM269 335l-26 -174q-1 -3 -1 -8 q2 -16 24 -17h206q23 0 27 20q1 3 1 4l28 187q-3 3 -9 6q-17 7 -37 7h-181q-26 0 -31 -20q-1 -3 -1 -5z" glyph-name="eth" horiz-adv-x="699" unicode="ð"/>
<glyph d="M608 189h-514l19 136h514zM419 145l-20 -141h-146l20 141h146zM470 508l-20 -141h-146l20 141h146z" glyph-name="divide" unicode="÷"/>
<glyph d="M339 590l-67 40l249 182l62 -89zM680 512l-347 -582q-43 -69 -83 -118q-12 -14 -28 -30h-165l27 30q35 41 73 94l68 102l-159 504h183l79 -334l174 334h178z" glyph-name="yacute" horiz-adv-x="604" unicode="ý"/>
<glyph d="M333 740l-33 -228h283q87 0 109 -64q6 -17 6 -37q0 -9 -2 -22l-37 -257q-21 -131 -158 -132h-187q-58 0 -84 15l-30 -218l-160 -25l133 943zM508 161l27 190q0 1 1 4v4q-2 16 -24 17h-231l-32 -227q3 -4 8 -7q15 -6 37 -6h181q27 0 32 20q1 3 1 5z" glyph-name="thorn" horiz-adv-x="707" unicode="þ"/>
</font>
</defs>
</svg>
